# Blender v2.81 (sub 16) OBJ File: 'CylinderMesh.blend'
# www.blender.org
mtllib cylinderleftdoor.mtl
o LeftDoor_Cylinder.005
v -0.000003 0.875000 0.500001
v -0.000003 0.125000 0.500001
v -0.097548 0.875000 0.490393
v -0.097548 0.125000 0.490393
v -0.191345 0.875000 0.461941
v -0.191345 0.125000 0.461941
v -0.277788 0.875000 0.415736
v -0.277788 0.125000 0.415736
v 0.000977 0.875000 0.490050
v 0.000977 0.125000 0.490049
v -0.095597 0.875000 0.480586
v -0.095597 0.125000 0.480585
v -0.187518 0.875000 0.452703
v -0.187518 0.125000 0.452703
v -0.273074 0.875000 0.406917
v -0.273074 0.125000 0.406917
vt 0.353347 0.125000
vt 0.353347 0.875000
vt 0.331263 0.875000
vt 0.331263 0.125000
vt 0.309179 0.875000
vt 0.309179 0.125000
vt 0.287095 0.875000
vt 0.287095 0.125000
vt 0.853347 0.125000
vt 0.844181 0.125000
vt 0.844181 0.875000
vt 0.853347 0.875000
vt 0.835016 0.125000
vt 0.835016 0.875000
vt 0.825850 0.125000
vt 0.825850 0.875000
vt 0.853347 0.875000
vt 0.853347 0.125000
vt 0.844181 0.125000
vt 0.844181 0.875000
vt 0.835016 0.125000
vt 0.835016 0.875000
vt 0.825850 0.125000
vt 0.825850 0.125000
vt 0.825850 0.875000
vt 0.825850 0.875000
vn -0.0980 -0.0000 0.9952
vn -0.1951 -0.0000 0.9808
vn -0.3827 -0.0000 0.9239
vn -0.4714 -0.0000 0.8819
vn 0.6310 -0.5773 -0.5182
vn 0.1948 0.0000 -0.9808
vn 0.6310 0.5773 -0.5182
vn 0.3829 0.0000 -0.9238
vn -0.2368 -0.5773 -0.7814
vn -0.2368 0.5773 -0.7814
vn 0.7037 0.7071 0.0693
vn 0.7037 -0.7071 0.0693
vn 0.0000 -1.0000 0.0000
vn 0.0000 1.0000 0.0000
vn -0.6236 -0.7071 -0.3333
vn -0.6236 0.7071 -0.3333
usemtl CylinderMaterial.005
s 1
f 2/1/1 1/2/1 3/3/2 4/4/2
f 4/4/2 3/3/2 5/5/3 6/6/3
f 6/6/3 5/5/3 7/7/4 8/8/4
f 10/9/5 12/10/6 11/11/6 9/12/7
f 12/10/6 14/13/8 13/14/8 11/11/6
f 14/13/8 16/15/9 15/16/10 13/14/8
f 1/17/11 2/18/12 10/9/5 9/12/7
f 2/18/12 4/19/13 12/10/13 10/9/5
f 3/20/14 1/17/11 9/12/7 11/11/14
f 4/19/13 6/21/13 14/13/13 12/10/13
f 5/22/14 3/20/14 11/11/14 13/14/14
f 6/21/13 8/23/15 16/24/9 14/13/13
f 7/25/16 5/22/14 13/14/14 15/26/10
f 8/23/15 7/25/16 15/26/10 16/24/9
